
<svg width="330px" height="131px" viewBox="18 18 330 131" version="1.1" xmlns="http://www.w3.org/2000/svg" xmlns:xlink="http://www.w3.org/1999/xlink">
    <!-- Generator: Sketch Beta 42 (36679) - http://www.bohemiancoding.com/sketch -->
    <desc>Created with Sketch Beta.</desc>
    <defs>
        <linearGradient x1="0%" y1="0%" x2="100%" y2="100%" id="linearGradient-1">
            <stop stop-color="#028EF7" offset="0%"></stop>
            <stop stop-color="#0155EB" offset="100%"></stop>
        </linearGradient>
    </defs>
    <g id="DASH-Plumbing" stroke="none" stroke-width="1" fill="none" fill-rule="evenodd" transform="translate(19.000000, 18.000000)">
        <path d="M-1.42108547e-14,0 L194.662802,0 L241.488215,70.8507042 L46.8254131,70.8507042 L-1.42108547e-14,0 Z M57.7791942,54.4269944 L57.7791942,13.2048 C61.3361605,12.5811662 66.1411852,12.2693493 71.1334186,12.2693493 C79.245798,12.2693493 84.3004343,13.5789803 88.4814299,16.4476958 C93.0992458,19.6282282 96.0945859,24.8667521 96.0945859,32.5998113 C96.0945859,41.2059577 92.8496341,46.7562986 88.7310415,49.936831 C84.1132256,53.4915437 77.1865017,55.1129915 68.9493165,55.1129915 C63.5826655,55.1129915 59.9008934,54.7388113 57.7791942,54.4269944 Z M69.0117194,21.1249493 L69.0117194,46.2573915 C69.5733457,46.3821183 70.6341953,46.3821183 71.3830303,46.3821183 C78.6841717,46.4444817 84.1132256,42.4532254 84.1132256,32.9739915 C84.1132256,24.7420254 79.245798,20.8754958 72.4438799,20.8754958 C70.6965982,20.8754958 69.5733457,21.0002225 69.0117194,21.1249493 Z M122.990244,44.8853972 L112.132136,44.8853972 L109.760825,54.6140845 L98.0914792,54.6140845 L110.260048,12.5811662 L125.299152,12.5811662 L137.842138,54.6140845 L125.673569,54.6140845 L122.990244,44.8853972 Z M113.629806,36.5910676 L121.430171,36.5910676 L119.49568,29.0450986 C118.871651,26.6752901 118.060413,23.1829408 117.373981,20.750769 L117.249175,20.750769 C116.625146,23.1829408 116.001117,26.6752901 115.43949,29.0450986 L113.629806,36.5910676 Z M141.835925,52.6808197 C144.207236,53.9280873 149.137066,55.2377183 154.191703,55.2377183 C166.485077,55.2377183 172.10134,49.0637437 172.10134,41.8295915 C172.10134,35.9674338 168.731582,31.9138141 161.180829,29.107462 C155.876581,27.1741972 153.630076,26.3011099 153.630076,24.1807549 C153.630076,22.3098535 155.502164,21.0625859 158.934324,21.0625859 C163.11532,21.0625859 166.235466,22.2474901 168.04515,23.0582141 L170.416461,14.0778873 C167.670733,12.8306197 164.051364,11.895169 159.05913,11.895169 C148.450634,11.895169 142.147939,17.6326 142.147939,25.0538423 C142.147939,31.2901803 146.890561,35.2190732 154.004494,37.7136085 C158.747116,39.3350563 160.619203,40.5199606 160.619203,42.5779521 C160.619203,44.698307 158.747116,46.007938 154.878135,46.007938 C150.634736,46.007938 146.516144,44.698307 143.957624,43.3886761 L141.835925,52.6808197 Z M178.216826,12.5811662 L178.216826,54.6140845 L189.511754,54.6140845 L189.511754,37.963062 L203.177993,37.963062 L203.177993,54.6140845 L214.472921,54.6140845 L214.472921,29.9768677 L203.177993,12.8795624 L203.177993,28.1096479 L189.511754,28.1096479 L189.511754,12.5811662 L178.216826,12.5811662 Z" id="Combined-Shape" fill="url(#linearGradient-1)"></path>
        <path d="M57.7791942,117.715493 L57.7791942,76.3062085 C60.8369371,75.8073014 65.2675443,75.3707577 71.632642,75.3707577 C77.685725,75.3707577 82.0539293,76.4932986 84.9868664,78.7383803 C87.8574007,80.8587352 89.7918911,84.5381746 89.7918911,88.8412479 C89.7918911,93.0819577 88.356624,96.7613972 85.6732985,99.193569 C82.303541,102.187011 77.3737104,103.559006 71.6950449,103.559006 C70.5717924,103.559006 69.6357486,103.434279 68.9493165,103.434279 L68.9493165,117.715493 L57.7791942,117.715493 Z M68.9493165,84.101631 L68.9493165,94.8281324 C69.5733457,94.8904958 70.3221807,94.9528592 71.5078361,94.9528592 C75.8760404,94.9528592 78.6217688,92.7077775 78.6217688,89.0907014 C78.6217688,85.9725324 76.5624725,83.8521775 72.2566712,83.8521775 C70.6341953,83.8521775 69.5109428,83.9769042 68.9493165,84.101631 Z M94.9089304,117.715493 L106.203859,117.715493 L106.203859,73.437493 L94.9089304,73.437493 L94.9089304,117.715493 Z M143.458401,87.0327099 L132.163473,87.0327099 L132.163473,105.11809 C132.163473,105.741724 132.10107,106.302994 131.913861,106.739538 C131.47704,107.924442 130.353788,109.3588 128.294492,109.3588 C125.611166,109.3588 124.363108,107.238445 124.363108,103.309552 L124.363108,87.0327099 L113.06818,87.0327099 L113.06818,105.11809 C113.06818,113.97369 117.124369,118.40149 123.98869,118.40149 C129.480147,118.40149 132.163473,115.345685 133.286725,113.661873 L133.473934,113.661873 L133.973157,117.715493 L143.708012,117.715493 C143.583207,115.096231 143.458401,111.603882 143.458401,107.238445 L143.458401,87.0327099 Z M150.50993,117.715493 L161.430441,117.715493 L161.430441,100.191383 C161.430441,99.4430225 161.492844,98.6322986 161.742456,97.883938 C162.179276,96.8861239 163.177723,95.3894028 165.174616,95.3894028 C167.733136,95.3894028 168.793985,97.6344845 168.793985,101.06447 L168.793985,117.715493 L179.714496,117.715493 L179.714496,100.253746 C179.714496,99.5677493 179.776899,98.6322986 180.026511,98.0086648 C180.525734,96.5119437 181.648987,95.3894028 183.458671,95.3894028 C185.954788,95.3894028 187.07804,97.5721211 187.07804,101.376287 L187.07804,117.715493 L197.998551,117.715493 L197.998551,99.6924761 C197.998551,91.148693 194.191973,86.3467127 187.577264,86.3467127 C185.517967,86.3467127 183.708283,86.7832563 182.14821,87.5939803 C180.525734,88.4670676 179.090467,89.6519718 177.904811,91.2734197 L177.780006,91.2734197 C176.469544,88.1552507 173.411801,86.3467127 169.480418,86.3467127 C164.176169,86.3467127 161.492844,89.3401549 160.369591,90.8992394 L160.11998,90.8992394 L159.683159,87.0327099 L150.260319,87.0327099 C150.385125,89.9014254 150.50993,93.3937746 150.50993,97.5097577 L150.50993,117.715493 Z M204.862872,107.986806 L204.862872,73.437493 L216.095397,73.437493 L216.095397,90.1508789 L216.220203,90.1508789 C217.967485,87.8434338 221.025228,86.3467127 224.956612,86.3467127 C232.19535,86.3467127 237.562001,92.3335972 237.499598,101.750468 C237.499598,112.851149 230.510471,118.40149 223.396539,118.40149 C220.151587,118.40149 216.719426,117.216586 214.66013,113.7866 L214.535324,113.7866 L214.098504,117.715493 L204.61326,117.715493 C204.738066,115.719865 204.862872,111.790972 204.862872,107.986806 Z M216.095397,100.253746 L216.095397,104.36973 C216.095397,104.931 216.1578,105.49227 216.220203,105.928814 C216.657024,107.924442 218.404305,109.608254 220.65081,109.608254 C223.958165,109.608254 226.079864,107.113718 226.079864,102.249375 C226.079864,98.0710282 224.394985,94.9528592 220.65081,94.9528592 C218.466708,94.9528592 216.594621,96.574307 216.220203,98.7570254 C216.1578,99.2559324 216.095397,99.7548394 216.095397,100.253746 Z M254.161177,117.715493 L254.161177,87.0327099 L242.866249,87.0327099 L242.866249,117.715493 L254.161177,117.715493 Z M248.544915,73.2504028 C245.050351,73.2504028 242.803846,75.4954845 242.803846,78.6136535 C242.803846,81.5447324 244.987948,83.9145408 248.482512,83.9145408 C252.039478,83.9145408 254.285983,81.5447324 254.285983,78.6136535 C254.22358,75.4954845 252.039478,73.2504028 248.544915,73.2504028 Z M261.087901,117.715493 L272.382829,117.715493 L272.382829,100.31611 C272.382829,99.5053859 272.445232,98.6322986 272.694844,98.0710282 C273.194067,96.8861239 274.192514,95.3894028 276.376616,95.3894028 C279.122345,95.3894028 280.308,97.4473944 280.308,101.002107 L280.308,117.715493 L291.602928,117.715493 L291.602928,99.6301127 C291.602928,91.2110563 287.671544,86.3467127 280.495209,86.3467127 C275.378169,86.3467127 272.382829,89.3401549 271.259577,90.9616028 L271.072368,90.9616028 L270.573145,87.0327099 L260.83829,87.0327099 C260.963095,89.9014254 261.087901,93.3937746 261.087901,97.5097577 L261.087901,117.715493 Z M328.732664,96.5119437 L328.732664,113.22533 C328.732664,118.58858 327.671815,123.702377 323.92764,126.945273 C320.433076,129.938715 315.752857,130.749439 311.010236,130.749439 C306.766837,130.749439 302.461036,129.938715 299.590502,128.441994 L301.712201,119.960575 C303.584288,121.020752 307.078852,122.205656 310.573415,122.205656 C314.567202,122.205656 317.687348,120.022938 317.687348,115.283321 L317.687348,113.911327 L317.562542,113.911327 C315.690455,116.218772 312.944726,117.341313 309.886983,117.341313 C302.398633,117.341313 296.969579,111.354428 296.969579,102.436465 C296.969579,92.7701408 303.209871,86.3467127 310.88543,86.3467127 C314.629605,86.3467127 317.188125,87.7810704 318.8106,90.337969 L318.935406,90.337969 L319.309824,87.0327099 L328.982276,87.0327099 C328.85747,88.9659746 328.732664,91.5852366 328.732664,96.5119437 Z M317.500139,103.808459 L317.500139,99.6924761 C317.500139,99.193569 317.437736,98.694662 317.375333,98.2581183 C316.87611,96.0130366 315.440843,94.765769 313.381547,94.765769 C310.698221,94.765769 308.389313,97.385031 308.389313,102.249375 C308.389313,106.240631 310.261401,109.17171 313.381547,109.17171 C315.440843,109.17171 316.938513,107.799715 317.31293,106.115904 C317.500139,105.49227 317.500139,104.494456 317.500139,103.808459 Z" id="Plumbing" fill="#0155EB"></path>
    </g>
</svg>
