
<svg width="180px" height="180px" viewBox="0 0 180 180" version="1.1" xmlns="http://www.w3.org/2000/svg" xmlns:xlink="http://www.w3.org/1999/xlink">
    <!-- Generator: Sketch Beta 42 (36679) - http://www.bohemiancoding.com/sketch -->
    <desc>Created with Sketch Beta.</desc>
    <defs>
        <rect id="path-1" x="0" y="0" width="180" height="180" rx="10.4046243"></rect>
        <radialGradient cx="50%" cy="50%" fx="50%" fy="50%" r="49.1310587%" id="radialGradient-3">
            <stop stop-color="#61A175" offset="0%"></stop>
            <stop stop-color="#477856" offset="100%"></stop>
        </radialGradient>
    </defs>
    <g id="Menu-Residential" stroke="none" fill="none" stroke-width="1" fill-rule="evenodd">
        <g id="Residential">
            <mask id="mask-2" fill="white">
                <use xlink:href="#path-1"></use>
            </mask>
            <use id="Mask" fill="#6BB081" xlink:href="#path-1"></use>
            <path d="M40.4,156 L40.4,23 C50.6,21.4 66,20.2 84,20.2 C104.6,20.2 119.4,23 129.6,30.6 C138.2,37.4 142.8,47 142.8,60 C142.8,76.8 130.2,88.6 119.8,92.6 L119.8,93.2 C128.6,97.2 133.6,105.8 137,117.4 C141,131.2 145.4,150.8 148,156 L111.2,156 C109.2,152 105.6,141.6 101.8,124.8 C98.2,108.8 93.2,105.4 82,105.4 L76.2,105.4 L76.2,156 L40.4,156 Z M76.2,47.8 L76.2,79.4 L85.6,79.4 C99.2,79.4 107,72.8 107,62.8 C107,52.8 100.4,47 88.4,47 C81.6,47 78,47.2 76.2,47.8 Z" id="R" fill-opacity="0.876585145" fill="#FFFFFF" mask="url(#mask-2)"></path>
            <g id="Corner-Go" mask="url(#mask-2)">
                <g transform="translate(129.000000, 129.000000)">
                    <circle id="Oval-2" stroke="#376A47" stroke-width="2" fill="url(#radialGradient-3)" cx="41.5" cy="41.5" r="41.5"></circle>
                    <path d="M25.38,31 L17.46,31 L17.46,35.2 L20.16,35.2 L20.16,38.68 C19.89,38.8 19.2,38.86 18.45,38.86 C15.15,38.86 12.72,36.67 12.72,32.89 C12.72,28.78 15.48,27.04 18.81,27.04 C21.09,27.04 22.47,27.4 23.61,27.88 L24.69,23.56 C23.64,23.05 21.57,22.57 18.84,22.57 C12.3,22.57 7.05,26.14 7.02,33.16 C7.02,36.07 8.01,38.68 9.9,40.48 C11.73,42.22 14.43,43.21 18.39,43.21 C21.03,43.21 23.85,42.58 25.38,42.07 L25.38,31 Z M37.98,22.42 C44.49,22.42 47.79,27.25 47.79,32.68 C47.79,39.19 43.89,43.33 37.65,43.33 C31.38,43.33 27.93,38.62 27.93,33.01 C27.93,27.1 31.77,22.42 37.98,22.42 Z M37.86,26.71 C35.31,26.71 33.66,29.17 33.66,32.89 C33.66,36.7 35.31,39.04 37.92,39.04 C40.53,39.04 42.06,36.49 42.06,32.83 C42.06,29.35 40.5,26.71 37.86,26.71 Z" id="GO" stroke="none" fill="#EDF5EF"></path>
                </g>
            </g>
        </g>
    </g>
</svg>
