
<svg width="125px" height="50px" viewBox="11 2 125 50" version="1.1" xmlns="http://www.w3.org/2000/svg" xmlns:xlink="http://www.w3.org/1999/xlink">
    <!-- Generator: Sketch Beta 42 (36679) - http://www.bohemiancoding.com/sketch -->
    <desc>Created with Sketch Beta.</desc>
    <defs>
        <linearGradient x1="0%" y1="0%" x2="100%" y2="100%" id="linearGradient-1">
            <stop stop-color="#028EF7" offset="0%"></stop>
            <stop stop-color="#0155EB" offset="100%"></stop>
        </linearGradient>
    </defs>
    <g id="DASH-Plumbing" stroke="none" stroke-width="1" fill="none" fill-rule="evenodd" transform="translate(11.000000, 2.000000)">
        <path d="M7.10542736e-15,0 L73.9600313,0 L91.7508418,27.0422535 L17.7908105,27.0422535 L7.10542736e-15,0 Z M21.9525814,20.773662 L21.9525814,5.04 C23.3040123,4.80197183 25.1296296,4.68295775 27.0263749,4.68295775 C30.1085859,4.68295775 32.0290404,5.1828169 33.6175645,6.27774648 C35.3720539,7.49169014 36.510101,9.49112676 36.510101,12.4426761 C36.510101,15.7274648 35.2772166,17.8459155 33.7124018,19.0598592 C31.9579125,20.4166197 29.3261785,21.035493 26.1965488,21.035493 C24.1575477,21.035493 22.7586981,20.8926761 21.9525814,20.773662 Z M26.2202581,8.06295775 L26.2202581,17.655493 C26.433642,17.7030986 26.8367003,17.7030986 27.1212121,17.7030986 C29.895202,17.7269014 31.9579125,16.2035211 31.9579125,12.585493 C31.9579125,9.44352113 30.1085859,7.96774648 27.5242705,7.96774648 C26.8604097,7.96774648 26.433642,8.01535211 26.2202581,8.06295775 Z M46.7288159,17.131831 L42.6033951,17.131831 L41.7024411,20.8450704 L37.2687991,20.8450704 L41.8921156,4.80197183 L47.6060606,4.80197183 L52.371633,20.8450704 L47.7483165,20.8450704 L46.7288159,17.131831 Z M43.1724186,13.9660563 L46.1360831,13.9660563 L45.4010943,11.0859155 C45.1640011,10.1814085 44.85578,8.8484507 44.5949776,7.92014085 L44.5475589,7.92014085 C44.3104658,8.8484507 44.0733726,10.1814085 43.8599888,11.0859155 L43.1724186,13.9660563 Z M53.8890292,20.1071831 C54.7899832,20.5832394 56.6630191,21.0830986 58.5834736,21.0830986 C63.2542088,21.0830986 65.3880471,18.7266197 65.3880471,15.965493 C65.3880471,13.7280282 64.1077441,12.1808451 61.2389169,11.1097183 C59.2236251,10.371831 58.3700898,10.0385915 58.3700898,9.22929577 C58.3700898,8.51521127 59.0813692,8.03915493 60.3853816,8.03915493 C61.9739057,8.03915493 63.1593715,8.49140845 63.8469416,8.80084507 L64.7478956,5.37323944 C63.7046857,4.8971831 62.3295455,4.54014085 60.4328002,4.54014085 C56.4022166,4.54014085 54.0075758,6.73 54.0075758,9.56253521 C54.0075758,11.9428169 55.8094837,13.4423944 58.5123457,14.394507 C60.3142536,15.0133803 61.0255331,15.4656338 61.0255331,16.2511268 C61.0255331,17.0604225 60.3142536,17.5602817 58.8442761,17.5602817 C57.2320426,17.5602817 55.6672278,17.0604225 54.6951459,16.5605634 L53.8890292,20.1071831 Z M67.71156,4.80197183 L67.71156,20.8450704 L72.0029461,20.8450704 L72.0029461,14.4897183 L77.1952862,14.4897183 L77.1952862,20.8450704 L81.4866723,20.8450704 L81.4866723,11.4415525 L77.1952862,4.9158635 L77.1952862,10.7288732 L72.0029461,10.7288732 L72.0029461,4.80197183 L67.71156,4.80197183 Z" id="Combined-Shape" fill="url(#linearGradient-1)"></path>
        <path d="M21.9525814,44.9295775 L21.9525814,29.124507 C23.1143378,28.9340845 24.7976992,28.7674648 27.2160494,28.7674648 C29.515853,28.7674648 31.1755051,29.1959155 32.2898429,30.0528169 C33.3804714,30.8621127 34.1154602,32.2664789 34.1154602,33.9088732 C34.1154602,35.5274648 33.5701459,36.931831 32.5506453,37.8601408 C31.2703423,39.0026761 29.3973064,39.526338 27.2397587,39.526338 C26.812991,39.526338 26.4573513,39.4787324 26.1965488,39.4787324 L26.1965488,44.9295775 L21.9525814,44.9295775 Z M26.1965488,32.0998592 L26.1965488,36.1939437 C26.433642,36.2177465 26.7181538,36.2415493 27.1686308,36.2415493 C28.8282828,36.2415493 29.8714927,35.3846479 29.8714927,34.0040845 C29.8714927,32.8139437 29.0890853,32.0046479 27.4531425,32.0046479 C26.8367003,32.0046479 26.4099327,32.0522535 26.1965488,32.0998592 Z M36.059624,44.9295775 L40.3510101,44.9295775 L40.3510101,28.0295775 L36.059624,28.0295775 L36.059624,44.9295775 Z M54.5054714,33.2185915 L50.2140853,33.2185915 L50.2140853,40.1214085 C50.2140853,40.3594366 50.190376,40.573662 50.119248,40.7402817 C49.9532828,41.1925352 49.5265152,41.74 48.7441077,41.74 C47.7246072,41.74 47.2504209,40.9307042 47.2504209,39.4311268 L47.2504209,33.2185915 L42.9590348,33.2185915 L42.9590348,40.1214085 C42.9590348,43.5014085 44.5001403,45.1914085 47.108165,45.1914085 C49.1945847,45.1914085 50.2140853,44.0250704 50.640853,43.3823944 L50.7119809,43.3823944 L50.9016554,44.9295775 L54.6003086,44.9295775 C54.55289,43.9298592 54.5054714,42.5969014 54.5054714,40.9307042 L54.5054714,33.2185915 Z M57.184624,44.9295775 L61.3337542,44.9295775 L61.3337542,38.2409859 C61.3337542,37.9553521 61.3574635,37.6459155 61.4523008,37.3602817 C61.618266,36.9794366 61.997615,36.408169 62.7563131,36.408169 C63.7283951,36.408169 64.1314534,37.2650704 64.1314534,38.5742254 L64.1314534,44.9295775 L68.2805836,44.9295775 L68.2805836,38.2647887 C68.2805836,38.0029577 68.3042929,37.6459155 68.3991302,37.4078873 C68.5888047,36.8366197 69.0155724,36.408169 69.7031425,36.408169 C70.6515152,36.408169 71.0782828,37.2412676 71.0782828,38.6932394 L71.0782828,44.9295775 L75.227413,44.9295775 L75.227413,38.0505634 C75.227413,34.7895775 73.7811448,32.9567606 71.2679574,32.9567606 C70.4855499,32.9567606 69.7979798,33.1233803 69.2052469,33.4328169 C68.5888047,33.7660563 68.0434905,34.2183099 67.5930135,34.8371831 L67.5455948,34.8371831 C67.0476992,33.6470423 65.8859428,32.9567606 64.3922559,32.9567606 C62.3769641,32.9567606 61.3574635,34.0992958 60.9306958,34.6943662 L60.8358586,34.6943662 L60.6698934,33.2185915 L57.0897868,33.2185915 C57.1372054,34.3135211 57.184624,35.6464789 57.184624,37.2174648 L57.184624,44.9295775 Z M77.8354377,41.216338 L77.8354377,28.0295775 L82.1031145,28.0295775 L82.1031145,34.4087324 L82.1505331,34.4087324 C82.8143939,33.5280282 83.9761504,32.9567606 85.4698373,32.9567606 C88.2201178,32.9567606 90.259119,35.241831 90.2354097,38.8360563 C90.2354097,43.0729577 87.5799663,45.1914085 84.8771044,45.1914085 C83.64422,45.1914085 82.3402076,44.7391549 81.5578002,43.43 L81.5103816,43.43 L81.3444164,44.9295775 L77.7406004,44.9295775 C77.7880191,44.1678873 77.8354377,42.6683099 77.8354377,41.216338 Z M82.1031145,38.2647887 L82.1031145,39.8357746 C82.1031145,40.05 82.1268238,40.2642254 82.1505331,40.4308451 C82.3164983,41.1925352 82.9803591,41.8352113 83.8338945,41.8352113 C85.0904882,41.8352113 85.8966049,40.8830986 85.8966049,39.0264789 C85.8966049,37.4316901 85.2564534,36.2415493 83.8338945,36.2415493 C83.0040685,36.2415493 82.292789,36.8604225 82.1505331,37.6935211 C82.1268238,37.8839437 82.1031145,38.0743662 82.1031145,38.2647887 Z M96.5657969,44.9295775 L96.5657969,33.2185915 L92.2744108,33.2185915 L92.2744108,44.9295775 L96.5657969,44.9295775 Z M94.4319585,27.958169 C93.1042368,27.958169 92.2507015,28.8150704 92.2507015,30.0052113 C92.2507015,31.1239437 93.0805275,32.0284507 94.4082492,32.0284507 C95.7596801,32.0284507 96.6132155,31.1239437 96.6132155,30.0052113 C96.5895062,28.8150704 95.7596801,27.958169 94.4319585,27.958169 Z M99.1975309,44.9295775 L103.488917,44.9295775 L103.488917,38.2885915 C103.488917,37.9791549 103.512626,37.6459155 103.607464,37.4316901 C103.797138,36.9794366 104.176487,36.408169 105.006313,36.408169 C106.049523,36.408169 106.5,37.193662 106.5,38.5504225 L106.5,44.9295775 L110.791386,44.9295775 L110.791386,38.0267606 C110.791386,34.8133803 109.297699,32.9567606 106.571128,32.9567606 C104.626964,32.9567606 103.488917,34.0992958 103.062149,34.718169 L102.991021,34.718169 L102.801347,33.2185915 L99.1026936,33.2185915 C99.1501122,34.3135211 99.1975309,35.6464789 99.1975309,37.2174648 L99.1975309,44.9295775 Z M124.898429,36.8366197 L124.898429,43.2157746 C124.898429,45.2628169 124.49537,47.2146479 123.072811,48.4523944 C121.74509,49.5949296 119.966891,49.9043662 118.164983,49.9043662 C116.55275,49.9043662 114.916807,49.5949296 113.826178,49.023662 L114.632295,45.7864789 C115.343575,46.1911268 116.671296,46.6433803 117.999018,46.6433803 C119.516414,46.6433803 120.70188,45.8102817 120.70188,44.0012676 L120.70188,43.4776056 L120.654461,43.4776056 C119.943182,44.3583099 118.899972,44.7867606 117.738215,44.7867606 C114.893098,44.7867606 112.830387,42.5016901 112.830387,39.0978873 C112.830387,35.4084507 115.201319,32.9567606 118.117565,32.9567606 C119.540123,32.9567606 120.512205,33.5042254 121.128648,34.4801408 L121.176066,34.4801408 L121.318322,33.2185915 L124.993266,33.2185915 C124.945847,33.9564789 124.898429,34.9561972 124.898429,36.8366197 Z M120.630752,39.6215493 L120.630752,38.0505634 C120.630752,37.8601408 120.607043,37.6697183 120.583333,37.5030986 C120.393659,36.6461972 119.848345,36.1701408 119.065937,36.1701408 C118.046437,36.1701408 117.169192,37.1698592 117.169192,39.0264789 C117.169192,40.5498592 117.880471,41.6685915 119.065937,41.6685915 C119.848345,41.6685915 120.417368,41.1449296 120.559624,40.5022535 C120.630752,40.2642254 120.630752,39.8833803 120.630752,39.6215493 Z" id="Plumbing" fill="#0155EB"></path>
    </g>
</svg>
